Coordinates
version=1
nRows=15
nColumns=34
inDegrees=no

Units are S.I. units (second, meters, Newtons, ...)
If the header above contains a line with 'inDegrees', this indicates whether rotational values are in degrees (yes) or radians (no).

endheader
time	pelvis_tilt	pelvis_list	pelvis_rotation	pelvis_tx	pelvis_ty	pelvis_tz	hip_flexion_r	hip_adduction_r	hip_rotation_r	knee_angle_r	ankle_angle_r	subtalar_angle_r	mtp_angle_r	hip_flexion_l	hip_adduction_l	hip_rotation_l	knee_angle_l	ankle_angle_l	subtalar_angle_l	mtp_angle_l	lumbar_extension	lumbar_bending	lumbar_rotation	arm_flex_r	arm_add_r	arm_rot_r	elbow_flex_r	pro_sup_r	arm_flex_l	arm_add_l	arm_rot_l	elbow_flex_l	pro_sup_l
1.85	-0.673082	-0.0507852	-0.0205301	-0.282201	0.649084	-0.631071	1.68034	-0.178786	-0.0247416	1.56321	0.524416	-0.0854388	-0.0934679	1.72026	-0.125003	0.132173	1.55145	0.554166	-0.092169	-0.0934661	-0.578653	0.0242617	-0.0110675	-0.50769	-0.403317	-0.234125	1.2748	1.50123	-0.574267	-0.396152	-0.0963776	1.13326	1.35219
1.86	-0.661576	-0.0519068	-0.0188861	-0.278598	0.651116	-0.630781	1.66607	-0.176535	-0.0250544	1.56649	0.518333	-0.0941547	-0.0934575	1.70669	-0.126538	0.131626	1.55469	0.550418	-0.091484	-0.0934556	-0.580969	0.0250086	-0.024733	-0.44906	-0.382674	-0.208837	1.25059	1.4811	-0.533487	-0.389983	-0.0989948	1.12544	1.34662
1.87	-0.648281	-0.0522786	-0.0173047	-0.274994	0.653484	-0.63043	1.64971	-0.173327	-0.0237287	1.56897	0.512309	-0.10285	-0.093447	1.69061	-0.127659	0.130839	1.55722	0.546128	-0.0923214	-0.0934451	-0.58328	0.0251683	-0.0413198	-0.380597	-0.364548	-0.175689	1.22185	1.46204	-0.487674	-0.386331	-0.100777	1.11763	1.3401
1.88	-0.633324	-0.0519475	-0.0159507	-0.271439	0.656196	-0.630076	1.63126	-0.169123	-0.0207332	1.57045	0.506662	-0.111251	-0.0934366	1.67202	-0.128372	0.129908	1.55895	0.541558	-0.09466	-0.0934346	-0.585632	0.0248013	-0.0590751	-0.304451	-0.348591	-0.137147	1.18974	1.44373	-0.435854	-0.385019	-0.100593	1.10948	1.3315
1.89	-0.616887	-0.0510395	-0.0149888	-0.267996	0.659253	-0.6298	1.61078	-0.163992	-0.0162306	1.57076	0.501686	-0.119128	-0.0934261	1.65111	-0.128648	0.128984	1.55983	0.53691	-0.0985163	-0.0934241	-0.588077	0.0240472	-0.0755104	-0.223559	-0.334458	-0.0968674	1.15643	1.4256	-0.376469	-0.385758	-0.0966772	1.1007	1.31984
1.9	-0.599207	-0.0497095	-0.0145347	-0.264748	0.662671	-0.629679	1.58842	-0.158124	-0.0105475	1.56975	0.4976	-0.126306	-0.0934157	1.62812	-0.128412	0.128227	1.55984	0.532297	-0.103946	-0.0934136	-0.590654	0.0230707	-0.0879269	-0.141163	-0.321935	-0.0590034	1.12487	1.40733	-0.307832	-0.388064	-0.0870775	1.09129	1.30452
1.91	-0.580593	-0.0480697	-0.0146269	-0.261758	0.666435	-0.629725	1.56439	-0.151822	-0.00406905	1.56732	0.494516	-0.132677	-0.0934053	1.60336	-0.127553	0.127715	1.55893	0.527725	-0.111021	-0.0934031	-0.593285	0.0219328	-0.0944475	-0.0598024	-0.311076	-0.0267791	1.09808	1.38931	-0.228974	-0.391111	-0.0706411	1.08174	1.28574
1.92	-0.5614	-0.0462049	-0.0152271	-0.259068	0.670514	-0.629911	1.53896	-0.145439	0.00279417	1.56336	0.492412	-0.1382	-0.0933948	1.57716	-0.125956	0.127456	1.557	0.523087	-0.119787	-0.0933926	-0.595738	0.0205958	-0.0944099	0.0191212	-0.302185	-0.00179956	1.07866	1.37273	-0.139987	-0.393828	-0.0473177	1.07312	1.26467
1.93	-0.54201	-0.0442396	-0.0162475	-0.256706	0.674874	-0.630191	1.51243	-0.139286	0.00959047	1.55777	0.49113	-0.142896	-0.0933844	1.54991	-0.123568	0.127476	1.55396	0.51818	-0.130217	-0.0933822	-0.597643	0.0190099	-0.088285	0.0953821	-0.295725	0.0160649	1.06865	1.35935	-0.0419605	-0.395132	-0.0179748	1.06684	1.24352
1.94	-0.522788	-0.0423925	-0.0175883	-0.254679	0.679498	-0.630518	1.48511	-0.133549	0.0158226	1.55047	0.490383	-0.146859	-0.093374	1.52205	-0.120455	0.127877	1.54971	0.51273	-0.142164	-0.0933717	-0.598562	0.0172035	-0.0773588	0.169749	-0.292184	0.0284206	1.06934	1.35096	0.0633124	-0.394191	0.0160246	1.06448	1.22501
1.95	-0.504041	-0.0409533	-0.0191683	-0.252978	0.684375	-0.630842	1.45723	-0.128244	0.0210028	1.54136	0.489789	-0.150247	-0.0933636	1.49401	-0.116831	0.128831	1.54417	0.506432	-0.155355	-0.0933612	-0.598082	0.0153143	-0.0633416	0.243692	-0.291946	0.0378613	1.08131	1.34876	0.173747	-0.390624	0.053304	1.06757	1.21146
1.96	-0.486018	-0.0401807	-0.0209354	-0.251589	0.689488	-0.631113	1.42896	-0.123237	0.0247505	1.53037	0.488918	-0.153279	-0.0933532	1.46616	-0.113036	0.130482	1.53731	0.499001	-0.169425	-0.0933508	-0.595892	0.0135496	-0.0480134	0.319049	-0.295187	0.0473791	1.1044	1.35301	0.287377	-0.38458	0.092826	1.07736	1.20418
1.97	-0.468925	-0.0402619	-0.0228826	-0.250478	0.694806	-0.6313	1.40044	-0.118308	0.0268787	1.51745	0.48735	-0.156213	-0.0933427	1.43874	-0.10947	0.13285	1.52906	0.490203	-0.183981	-0.0933403	-0.591789	0.0120735	-0.0329628	0.397713	-0.301805	0.0597969	1.13777	1.36296	0.402668	-0.376682	0.134063	1.09466	1.20327
1.98	-0.45293	-0.041239	-0.0250547	-0.249592	0.700322	-0.63138	1.3718	-0.113232	0.0274086	1.50257	0.484717	-0.159318	-0.0933323	1.41189	-0.106519	0.13579	1.51932	0.479879	-0.198674	-0.0933298	-0.585642	0.01096	-0.0194095	0.48137	-0.311399	0.0773208	1.18005	1.37689	0.518679	-0.367891	0.176989	1.11976	1.20772
1.99	-0.43822	-0.0429975	-0.0275277	-0.248854	0.706042	-0.631341	1.34324	-0.107833	0.0265236	1.48568	0.480747	-0.162851	-0.0933219	1.38569	-0.10451	0.139021	1.50791	0.467951	-0.213232	-0.0933194	-0.577354	0.010185	-0.00812104	0.571313	-0.323297	0.10127	1.22946	1.39224	0.635061	-0.359314	0.221917	1.15245	1.21566
